<svg width="73" height="73" viewBox="0 0 73 73" fill="none" xmlns="http://www.w3.org/2000/svg">
<path fill-rule="evenodd" clip-rule="evenodd" d="M8.08337 8.08334H52.75V52.75H8.08337V8.08334ZM6.08337 8.08334C6.08337 6.97878 6.9788 6.08334 8.08337 6.08334H52.75C53.8546 6.08334 54.75 6.97877 54.75 8.08334V17.25H61.875C63.5319 17.25 64.875 18.5932 64.875 20.25V61.875C64.875 63.5319 63.5319 64.875 61.875 64.875H20.25C18.5932 64.875 17.25 63.5319 17.25 61.875V54.75H8.08338C6.97881 54.75 6.08337 53.8546 6.08337 52.75V8.08334ZM19.25 54.75V61.875C19.25 62.4273 19.6978 62.875 20.25 62.875H61.875C62.4273 62.875 62.875 62.4273 62.875 61.875V20.25C62.875 19.6977 62.4273 19.25 61.875 19.25H54.75V52.75C54.75 53.8546 53.8546 54.75 52.75 54.75H19.25ZM30.4167 20.2917C30.969 20.2917 31.4167 20.7394 31.4167 21.2917V29.4167H39.5417C40.094 29.4167 40.5417 29.8644 40.5417 30.4167C40.5417 30.969 40.094 31.4167 39.5417 31.4167H31.4167V39.5417C31.4167 40.094 30.969 40.5417 30.4167 40.5417C29.8644 40.5417 29.4167 40.094 29.4167 39.5417V31.4167H21.2917C20.7394 31.4167 20.2917 30.969 20.2917 30.4167C20.2917 29.8644 20.7394 29.4167 21.2917 29.4167H29.4167V21.2917C29.4167 20.7394 29.8644 20.2917 30.4167 20.2917Z" fill="#666666"/>
</svg>
