<svg width="51" height="49" viewBox="0 0 51 49" fill="none" xmlns="http://www.w3.org/2000/svg">
<path d="M18.5439 17.634H19.1552L19.6647 17.7869L20.1232 18.0925L20.4289 18.4492L20.6326 18.8567L20.7345 19.2133V19.8247L20.5308 20.3851L20.2251 20.8436L19.8175 21.1492L19.3081 21.353L18.7477 21.404L18.2382 21.3021L17.7288 21.0474L17.3212 20.6398L17.0155 20.0285L16.9646 19.7737V19.2643L17.1174 18.7548L17.4231 18.2454L17.7797 17.9397L18.2892 17.685L18.5439 17.634Z" fill="#757575"/>
<path d="M30.3631 17.634H30.9745L31.4839 17.7869L31.9424 18.0925L32.299 18.5001L32.5028 18.9077L32.5538 19.1114V19.9266L32.299 20.5379L31.8915 20.9964L31.4839 21.2511L30.8216 21.404L30.2103 21.353L29.7008 21.1492L29.1914 20.6907L28.8857 20.1303L28.8348 19.9266V19.0605L29.0386 18.5511L29.4971 18.0416L29.9046 17.7869L30.3631 17.634Z" fill="#757575"/>
<path d="M17.5251 3.01282H19.7157L21.1422 3.16565L22.5177 3.42038L23.5366 3.6751L24.1479 3.92983L24.9121 4.33739H25.1159L26.1857 3.77699L27.2556 3.47132L28.5802 3.2166L29.7519 3.06376L30.3123 3.01282H32.452L33.8275 3.16565L35.1011 3.42038L36.4766 3.82794L37.7503 4.33739L38.871 4.89778L39.9409 5.56007L40.6541 6.06952L41.3673 6.62991L42.1315 7.2922L43.507 8.66771L43.9655 9.22811L44.6278 10.0432L45.2901 10.9602L45.8505 11.8263L46.5128 12.9471L47.1751 14.1698L47.8374 15.5962L48.4996 17.2774L49.111 19.1624L49.5695 20.9964L49.8242 22.4229L49.9771 23.5946L50.028 24.155V26.4475L49.8752 27.5174L49.6204 28.3834L49.2129 29.1986L48.7034 29.8608L48.2449 30.3703L47.9393 30.7269L47.5317 31.0835L46.8694 31.593L45.9524 32.1024L44.9335 32.51L43.7618 32.7647L43.3542 32.8157H41.9277L41.2145 32.7138L41.1126 34.4459L40.9598 35.4648L40.7051 36.4327L40.2975 37.4516L39.839 38.3177L39.3295 39.0309L38.871 39.5404L38.5144 39.948L37.954 40.4065L37.2917 40.9159L36.4766 41.3744L35.5596 41.782L34.5917 42.0876H34.4388V44.8387L34.5917 46.0614L34.8973 46.9274L34.9483 47.1821V47.6407L34.7445 48.201L34.3369 48.5577L33.7765 48.7614H33.318L32.8086 48.5577L32.452 48.201L32.2482 47.7425L31.9425 46.5199L31.7897 45.6028L31.6878 44.3802V42.4952L30.618 42.3933L29.7009 42.1895L28.6311 41.782L27.7141 41.2725L27.0518 40.7631L26.5424 40.3046L25.982 39.7442L25.4725 39.0819L25.0649 38.4196L24.4027 39.3876L23.9442 39.897L23.5875 40.3046L23.0781 40.7631L22.3139 41.3235L21.4988 41.782L20.4289 42.1895L19.461 42.3933L18.3402 42.4952V44.3292L18.1874 45.9595L17.9326 47.1821L17.6779 47.9973L17.4741 48.3029L17.1175 48.6086L16.71 48.7614H16.2515L15.6911 48.5577L15.2835 48.201L15.0797 47.6916V47.1821L15.2835 46.5199L15.4363 46.0104L15.5382 45.3991L15.5892 44.7877V42.0876L15.0288 41.9348L14.0608 41.5782L13.2457 41.1706L12.5325 40.7121L12.023 40.3046L11.5136 39.8461L11.0551 39.3876L10.5456 38.7253L10.0871 38.012L9.57766 36.9422L9.22105 35.8214L9.01727 34.7006L8.96632 34.1402V32.6628L8.55876 32.7647L8.10026 32.8157H6.6738L5.70584 32.6628L4.78883 32.4081L3.87182 32.0005L3.00576 31.4911L2.34347 30.9307L1.78308 30.4212L1.32457 29.8608L0.81512 29.1986L0.40756 28.4344L0.152835 27.5174L0 26.4475V24.1041L0.152835 22.7285L0.40756 21.2511L0.764175 19.7228L1.17174 18.3473L1.5793 17.1246L2.24158 15.4943L2.70009 14.4754L3.20954 13.5075L3.66804 12.6414L4.33033 11.5716L4.89072 10.7565L5.60395 9.7885L6.16435 9.12622L6.62285 8.56582L8.1512 7.03747L8.7116 6.57897L9.62861 5.86574L10.4947 5.30534L11.3607 4.79589L12.6344 4.18455L13.7042 3.77699L14.9269 3.42038L16.2005 3.16565L17.5251 3.01282ZM22.0592 8.3111L20.2252 8.46393L18.544 8.71866L16.8628 9.07527L15.2326 9.53378L13.6533 10.0942L12.4306 10.6546L11.4117 11.164L10.5456 11.6735L9.93428 12.081L8.96632 12.7943L8.25309 13.4056L7.59081 14.0169L7.08136 14.5264L6.72474 14.934L6.06246 15.7491L5.40017 16.717L4.94167 17.4812L4.48316 18.2963L3.97371 19.4171L3.46426 20.7926L3.0567 22.2191L2.85292 23.187L2.75103 23.9512V25.5305L2.90387 26.2437L3.20954 26.8551L3.41332 27.1098L3.82088 27.3645L4.22844 27.4664H4.83978L5.70584 27.2626L6.72474 26.8041L7.6927 26.2437L8.40593 25.7343L9.57766 24.9701L10.6475 24.3078L11.5645 23.7984L11.8192 23.6455L12.1759 23.3399L12.4815 23.238H13.1438L13.6533 23.4927L13.9589 23.8493L14.1118 24.3588L14.0608 24.8682L13.6533 25.6833L13.2457 26.5494L12.6853 27.9759L12.1759 29.5552L11.8192 31.1345L11.6664 32.2043V34.2421L11.8192 35.1591L12.1249 36.0761L12.4815 36.7894L12.8891 37.3498L13.4495 37.9611L14.0608 38.4196L14.7741 38.8272L15.5892 39.2347L16.5571 39.5913L17.576 39.7951H18.9515L19.6648 39.6423L20.4289 39.3366L21.1422 38.8781L21.7535 38.3177L22.1611 37.8592L22.6705 37.095L23.0781 36.2799L23.4856 35.312L23.3838 35.0572L22.7724 34.2931L22.3139 33.6817L21.6516 32.8157L21.0403 32.0005L20.9893 31.593V31.1345L21.0912 30.625L21.346 30.1156L21.8045 29.7589L22.212 29.6061H27.8669L28.3764 29.8099L28.733 30.1156L28.9877 30.5741L29.0896 31.0835V31.6439L28.9877 32.1024L28.5292 32.6628L27.9179 33.4779L27.4084 34.1402L26.7461 35.0063L26.6442 35.1591L26.6952 35.5157L27.2046 36.6875L27.7141 37.5535L28.1726 38.1139L28.5292 38.5215H28.6311V38.6234L29.3953 39.1838L30.2613 39.5913L30.8217 39.7442L31.1783 39.7951H32.5029L33.369 39.6423L34.286 39.3366L35.3558 38.8272L36.12 38.3687L36.6295 37.9611L37.2408 37.3498L37.7503 36.5856L38.1578 35.6176L38.3616 34.7516L38.4635 33.9364V32.6119L38.3106 31.2873L38.005 29.8608L37.5974 28.4853L37.1389 27.2117L36.5785 25.9381L36.171 25.123L36.0181 24.7663V24.2059L36.171 23.7984L36.4257 23.4927L36.9351 23.238H37.6484L38.1578 23.4927L38.3616 23.7474L39.3805 24.3078L40.7051 25.123L42.1315 26.0909L42.8448 26.5494L43.7108 27.0079L44.475 27.3136L45.1882 27.4664H45.7996L46.309 27.3136L46.6656 27.0589L46.9713 26.6004L47.1751 26.04L47.277 25.5305V23.9512L47.0732 22.6266L46.7166 21.3021L46.2581 19.9266L45.7486 18.7548L45.3411 17.9397L44.8316 17.0227L44.3222 16.2585L43.8637 15.6472L43.2014 14.8321L42.4372 14.0169L42.0806 13.6603L41.673 13.3037L41.0107 12.7433L40.0937 12.081L39.2277 11.5206L38.1069 10.9093L36.7314 10.247L35.2539 9.68661L33.9294 9.27905L32.5029 8.92244L30.567 8.56582L29.2934 8.41299L27.9688 8.3111H22.0592Z" fill="#757575"/>
<path d="M40.7654 0V19.5136" stroke="#7EE43A" stroke-width="5"/>
<path d="M31.0086 9.75682L50.5222 9.75682" stroke="#7EE43A" stroke-width="5"/>
</svg>
