<svg width="75" height="75" viewBox="0 0 75 75" fill="none" xmlns="http://www.w3.org/2000/svg">
<path d="M25.4808 0L26.9231 0.239617L28.6058 1.67732L28.8462 2.15655V3.83387L27.8846 5.27157L25.9615 7.1885L24.2788 9.10543L10.5769 22.7636V23.0032L51.2019 23.2428L54.8077 23.722L58.8942 24.9201L62.7404 26.8371L65.8654 29.2332L68.9904 32.3482L71.3942 35.7029L73.7981 40.7348L74.7596 44.5687L75 46.7252V51.278L74.2788 55.5911L73.0769 59.4249L70.4327 63.9776L67.3077 67.5719L64.9038 69.7284L62.5 71.4058L59.1346 73.0831L54.5673 74.5208L50 75H36.5385L35.0962 73.8019L34.6154 72.8435L34.8558 70.6869L36.2981 69.2492L47.8365 69.0096L53.125 68.5304L56.9712 67.3323L59.8558 65.8946L63.7019 62.7796L66.3462 59.1853L67.7885 56.0703L68.5096 53.6741L68.75 51.7572V46.0064L67.5481 41.4537L65.8654 38.3387L63.7019 35.4633L61.2981 33.3067L58.1731 31.3898L55.5288 30.1917L52.1635 29.4728L49.0385 29.2332H10.3365L11.7788 30.9105L13.7019 32.5879L18.0288 36.901V37.3802L18.75 37.6198L19.9519 38.8179V39.2971L20.9135 39.7764L22.5962 41.4537L24.2788 43.3706L28.3654 47.4441L28.8462 48.6422V50.0799L27.8846 51.278L26.4423 51.9968L24.7596 51.7572L22.8365 50.0799L0.480769 27.7955L0 26.8371L0.240385 24.6805L2.40385 22.2843L23.7981 0.958466L25.4808 0Z" fill="#757575"/>
</svg>
