<svg width="53" height="60" viewBox="0 0 53 60" fill="none" xmlns="http://www.w3.org/2000/svg">
<path d="M0 54.375C0 57.4805 2.54353 60 5.67857 60H47.3214C50.4565 60 53 57.4805 53 54.375V22.5H0V54.375ZM37.8571 31.4062C37.8571 30.6328 38.496 30 39.2768 30H44.0089C44.7897 30 45.4286 30.6328 45.4286 31.4062V36.0938C45.4286 36.8672 44.7897 37.5 44.0089 37.5H39.2768C38.496 37.5 37.8571 36.8672 37.8571 36.0938V31.4062ZM37.8571 46.4062C37.8571 45.6328 38.496 45 39.2768 45H44.0089C44.7897 45 45.4286 45.6328 45.4286 46.4062V51.0938C45.4286 51.8672 44.7897 52.5 44.0089 52.5H39.2768C38.496 52.5 37.8571 51.8672 37.8571 51.0938V46.4062ZM22.7143 31.4062C22.7143 30.6328 23.3531 30 24.1339 30H28.8661C29.6469 30 30.2857 30.6328 30.2857 31.4062V36.0938C30.2857 36.8672 29.6469 37.5 28.8661 37.5H24.1339C23.3531 37.5 22.7143 36.8672 22.7143 36.0938V31.4062ZM22.7143 46.4062C22.7143 45.6328 23.3531 45 24.1339 45H28.8661C29.6469 45 30.2857 45.6328 30.2857 46.4062V51.0938C30.2857 51.8672 29.6469 52.5 28.8661 52.5H24.1339C23.3531 52.5 22.7143 51.8672 22.7143 51.0938V46.4062ZM7.57143 31.4062C7.57143 30.6328 8.21027 30 8.99107 30H13.7232C14.504 30 15.1429 30.6328 15.1429 31.4062V36.0938C15.1429 36.8672 14.504 37.5 13.7232 37.5H8.99107C8.21027 37.5 7.57143 36.8672 7.57143 36.0938V31.4062ZM7.57143 46.4062C7.57143 45.6328 8.21027 45 8.99107 45H13.7232C14.504 45 15.1429 45.6328 15.1429 46.4062V51.0938C15.1429 51.8672 14.504 52.5 13.7232 52.5H8.99107C8.21027 52.5 7.57143 51.8672 7.57143 51.0938V46.4062ZM47.3214 7.5H41.6429V1.875C41.6429 0.84375 40.7911 0 39.75 0H35.9643C34.9232 0 34.0714 0.84375 34.0714 1.875V7.5H18.9286V1.875C18.9286 0.84375 18.0768 0 17.0357 0H13.25C12.2089 0 11.3571 0.84375 11.3571 1.875V7.5H5.67857C2.54353 7.5 0 10.0195 0 13.125V18.75H53V13.125C53 10.0195 50.4565 7.5 47.3214 7.5Z" fill="white"/>
</svg>
