<svg width="42" height="47" viewBox="0 0 42 47" fill="none" xmlns="http://www.w3.org/2000/svg">
<path d="M0 42.5938C0 45.0264 2.01562 47 4.5 47H37.5C39.9844 47 42 45.0264 42 42.5938V17.625H0V42.5938ZM30 24.6016C30 23.9957 30.5063 23.5 31.125 23.5H34.875C35.4937 23.5 36 23.9957 36 24.6016V28.2734C36 28.8793 35.4937 29.375 34.875 29.375H31.125C30.5063 29.375 30 28.8793 30 28.2734V24.6016ZM30 36.3516C30 35.7457 30.5063 35.25 31.125 35.25H34.875C35.4937 35.25 36 35.7457 36 36.3516V40.0234C36 40.6293 35.4937 41.125 34.875 41.125H31.125C30.5063 41.125 30 40.6293 30 40.0234V36.3516ZM18 24.6016C18 23.9957 18.5063 23.5 19.125 23.5H22.875C23.4937 23.5 24 23.9957 24 24.6016V28.2734C24 28.8793 23.4937 29.375 22.875 29.375H19.125C18.5063 29.375 18 28.8793 18 28.2734V24.6016ZM18 36.3516C18 35.7457 18.5063 35.25 19.125 35.25H22.875C23.4937 35.25 24 35.7457 24 36.3516V40.0234C24 40.6293 23.4937 41.125 22.875 41.125H19.125C18.5063 41.125 18 40.6293 18 40.0234V36.3516ZM6 24.6016C6 23.9957 6.50625 23.5 7.125 23.5H10.875C11.4937 23.5 12 23.9957 12 24.6016V28.2734C12 28.8793 11.4937 29.375 10.875 29.375H7.125C6.50625 29.375 6 28.8793 6 28.2734V24.6016ZM6 36.3516C6 35.7457 6.50625 35.25 7.125 35.25H10.875C11.4937 35.25 12 35.7457 12 36.3516V40.0234C12 40.6293 11.4937 41.125 10.875 41.125H7.125C6.50625 41.125 6 40.6293 6 40.0234V36.3516ZM37.5 5.875H33V1.46875C33 0.660937 32.325 0 31.5 0H28.5C27.675 0 27 0.660937 27 1.46875V5.875H15V1.46875C15 0.660937 14.325 0 13.5 0H10.5C9.675 0 9 0.660937 9 1.46875V5.875H4.5C2.01562 5.875 0 7.84863 0 10.2812V14.6875H42V10.2812C42 7.84863 39.9844 5.875 37.5 5.875Z" fill="#FFFFFF"/>
<path d="M6 24C6 23.4477 6.44772 23 7 23H35C35.5523 23 36 23.4477 36 24V40C36 41.1046 35.1046 42 34 42H8C6.89543 42 6 41.1046 6 40V24Z" fill="#FFFFFF"/>
</svg>
