<svg width="1088" height="1116" viewBox="0 0 1088 1116" fill="none" xmlns="http://www.w3.org/2000/svg">
<path d="M742.241 359.35C701.972 317.383 647.974 295 590.315 295C532.657 295 479.574 317.383 438.389 359.35L63.15 741.72C21.9652 783.687 0 838.711 0 896.533C0 954.354 21.9652 1010.31 63.15 1051.35C103.42 1092.38 157.417 1115.7 215.076 1115.7C272.735 1115.7 326.733 1093.31 367.002 1051.35L743.157 668.043C783.426 627.009 806.307 571.985 806.307 513.23C806.307 454.476 783.426 400.385 742.241 359.35ZM314.835 999.12C288.294 1026.17 252.6 1041.09 215.076 1041.09C177.552 1041.09 141.859 1026.17 115.317 999.12C88.7761 972.074 74.1326 935.702 74.1326 897.465C74.1326 859.228 88.7761 822.857 115.317 795.811L268.159 640.065C310.259 668.043 413.678 743.585 468.591 843.374L314.835 999.12ZM690.989 615.817L515.267 794.878C456.694 698.82 363.341 626.076 313.92 591.57L490.557 411.576C517.098 384.53 552.791 369.609 590.315 369.609C627.839 369.609 663.533 384.53 690.074 411.576C716.615 438.622 731.259 474.993 731.259 513.23C731.259 551.467 717.53 588.772 690.989 615.817ZM507.946 506.702C520.759 519.759 520.759 540.276 507.946 553.333L464.015 598.098C457.609 604.626 449.372 607.424 441.135 607.424C432.898 607.424 424.661 604.626 418.254 598.098C405.441 585.041 405.441 564.524 418.254 551.467L462.185 506.702C474.998 493.646 495.133 493.646 507.946 506.702ZM581.163 431.161C587.57 437.689 592.146 447.948 592.146 457.274C592.146 466.6 588.485 476.859 581.163 483.387C574.757 489.915 564.689 494.578 555.537 494.578C545.47 494.578 536.317 490.848 529.911 483.387C523.504 475.926 518.928 466.6 518.928 457.274C518.928 447.015 522.589 437.689 529.911 431.161C537.233 423.7 546.385 419.97 555.537 419.97C565.604 419.97 574.757 424.633 581.163 431.161Z" fill="#757575"/>
<path d="M681.75 408.969H494.25V346.051H681.75V157.296H744.25V346.051H931.75V408.969H744.25V597.724H681.75V408.969Z" fill="#7EE43A"/>
</svg>
