<svg width="49" height="50" viewBox="0 0 49 50" fill="none" xmlns="http://www.w3.org/2000/svg">
<path d="M45.0663 4.03049C42.6272 1.48701 39.3565 0.130493 35.8641 0.130493C32.3717 0.130493 29.1565 1.48701 26.662 4.03049L3.9337 27.2044C1.43914 29.7479 0.108704 33.0827 0.108704 36.587C0.108704 40.0914 1.43914 43.4827 3.9337 45.9696C6.37283 48.4566 9.64349 49.8696 13.1359 49.8696C16.6283 49.8696 19.8989 48.5131 22.3381 45.9696L45.1217 22.7392C47.5609 20.2522 48.9467 16.9174 48.9467 13.3566C48.9467 9.79571 47.5609 6.51745 45.0663 4.03049ZM19.1783 42.8044C17.5707 44.4435 15.4087 45.3479 13.1359 45.3479C10.8631 45.3479 8.70109 44.4435 7.09349 42.8044C5.48588 41.1653 4.59892 38.9609 4.59892 36.6435C4.59892 34.3261 5.48588 32.1218 7.09349 30.4827L16.3511 21.0435C18.9011 22.7392 25.1652 27.3174 28.4913 33.3653L19.1783 42.8044ZM41.962 19.574L31.3185 30.4261C27.7707 24.6044 22.1163 20.1957 19.1228 18.1044L29.8217 7.19571C31.4294 5.55658 33.5913 4.65223 35.8641 4.65223C38.137 4.65223 40.2989 5.55658 41.9065 7.19571C43.5141 8.83484 44.4011 11.0392 44.4011 13.3566C44.4011 15.674 43.5696 17.9348 41.962 19.574ZM30.875 12.9609C31.6511 13.7522 31.6511 14.9957 30.875 15.787L28.2141 18.5001C27.8261 18.8957 27.3272 19.0653 26.8283 19.0653C26.3294 19.0653 25.8304 18.8957 25.4424 18.5001C24.6663 17.7088 24.6663 16.4653 25.4424 15.674L28.1033 12.9609C28.8794 12.1696 30.0989 12.1696 30.875 12.9609ZM35.3098 8.38267C35.6978 8.77832 35.975 9.40006 35.975 9.96528C35.975 10.5305 35.7533 11.1522 35.3098 11.5479C34.9217 11.9435 34.312 12.2261 33.7576 12.2261C33.1478 12.2261 32.5935 12.0001 32.2054 11.5479C31.8174 11.0957 31.5402 10.5305 31.5402 9.96528C31.5402 9.34354 31.762 8.77832 32.2054 8.38267C32.6489 7.93049 33.2033 7.70441 33.7576 7.70441C34.3674 7.70441 34.9217 7.98701 35.3098 8.38267Z" fill="white"/>
</svg>
