<svg width="49" height="50" viewBox="0 0 49 50" fill="none" xmlns="http://www.w3.org/2000/svg">
<path d="M45.0662 4.03049C42.6271 1.48701 39.3565 0.130493 35.8641 0.130493C32.3717 0.130493 29.1565 1.48701 26.6619 4.03049L3.93364 27.2044C1.43908 29.7479 0.108643 33.0827 0.108643 36.587C0.108643 40.0914 1.43908 43.4827 3.93364 45.9696C6.37277 48.4566 9.64343 49.8696 13.1358 49.8696C16.6282 49.8696 19.8989 48.5131 22.338 45.9696L45.1217 22.7392C47.5608 20.2522 48.9467 16.9174 48.9467 13.3566C48.9467 9.79571 47.5608 6.51745 45.0662 4.03049ZM19.1782 42.8044C17.5706 44.4435 15.4086 45.3479 13.1358 45.3479C10.863 45.3479 8.70103 44.4435 7.09343 42.8044C5.48582 41.1653 4.59886 38.9609 4.59886 36.6435C4.59886 34.3261 5.48582 32.1218 7.09343 30.4827L16.351 21.0435C18.901 22.7392 25.1652 27.3174 28.4913 33.3653L19.1782 42.8044ZM41.9619 19.574L31.3184 30.4261C27.7706 24.6044 22.1163 20.1957 19.1228 18.1044L29.8217 7.19571C31.4293 5.55658 33.5912 4.65223 35.8641 4.65223C38.1369 4.65223 40.2989 5.55658 41.9065 7.19571C43.5141 8.83484 44.401 11.0392 44.401 13.3566C44.401 15.674 43.5695 17.9348 41.9619 19.574ZM30.8749 12.9609C31.651 13.7522 31.651 14.9957 30.8749 15.787L28.2141 18.5001C27.826 18.8957 27.3271 19.0653 26.8282 19.0653C26.3293 19.0653 25.8304 18.8957 25.4423 18.5001C24.6663 17.7088 24.6663 16.4653 25.4423 15.674L28.1032 12.9609C28.8793 12.1696 30.0989 12.1696 30.8749 12.9609ZM35.3097 8.38267C35.6978 8.77832 35.9749 9.40006 35.9749 9.96528C35.9749 10.5305 35.7532 11.1522 35.3097 11.5479C34.9217 11.9435 34.3119 12.2261 33.7576 12.2261C33.1478 12.2261 32.5934 12.0001 32.2054 11.5479C31.8173 11.0957 31.5402 10.5305 31.5402 9.96528C31.5402 9.34354 31.7619 8.77832 32.2054 8.38267C32.6489 7.93049 33.2032 7.70441 33.7576 7.70441C34.3673 7.70441 34.9217 7.98701 35.3097 8.38267Z" fill="#454545"/>
</svg>
