<svg width="37" height="37" viewBox="0 0 37 37" fill="none" xmlns="http://www.w3.org/2000/svg">
<path d="M8.96094 1.89697H16.6392L16.9644 1.93311L17.2896 2.0415L17.5605 2.18604L17.8135 2.38477L17.958 2.5293L18.1387 2.78223L18.2832 3.07129L18.3735 3.36035L18.4097 3.57715V3.92041L18.3374 4.28174L18.2471 4.5166L18.1206 4.75146L17.9761 4.9502L17.8857 5.05859H17.8496V5.09473H17.8135V5.13086L17.5425 5.32959L17.2534 5.47412L16.9644 5.56445L16.7476 5.60059L16.2959 5.61865H9.15967L8.74414 5.63672L8.31055 5.69092L7.80469 5.79932L7.1543 6.01611L6.79297 6.17871L6.48584 6.34131L6.19678 6.52197L5.94385 6.70264L5.69092 6.90137L5.47412 7.1001L5.32959 7.22656L5.07666 7.49756L4.91406 7.69629L4.7334 7.93115L4.49854 8.29248L4.28174 8.68994L4.10107 9.0874L3.92041 9.62939L3.81201 10.0811L3.75781 10.4062L3.72168 10.8037V28.0752L3.77588 28.5991L3.88428 29.123L3.99268 29.5024L4.19141 30.0083L4.39014 30.4058L4.60693 30.7671L4.7876 31.02L4.96826 31.2549L5.14893 31.4536L5.27539 31.5981L5.45605 31.7788L5.60059 31.9053L5.88965 32.1401L6.25098 32.3931L6.63037 32.6099L7.11816 32.8447L7.51562 32.9893L7.89502 33.0977L8.36475 33.188L8.79834 33.2422L9.12354 33.2603H25.8711L26.4492 33.2241L26.9189 33.1519L27.4248 33.0254L27.8403 32.8809L28.292 32.6821L28.6895 32.4653L29.0146 32.2485L29.2314 32.0859L29.4302 31.9233L29.6108 31.7607L29.665 31.7065H29.7012L29.7373 31.6343H29.7734L29.8096 31.562L29.9902 31.3813L30.189 31.1284L30.3696 30.8936L30.5864 30.5503L30.749 30.2612L30.9297 29.8638L31.0923 29.4121L31.2007 29.0146L31.2729 28.6533L31.3271 28.2378L31.3452 27.8584L31.3633 20.3789L31.4355 20.0356L31.562 19.7466L31.6885 19.5298L31.8511 19.3311L32.0317 19.1504L32.2666 18.9878L32.5557 18.8433L32.8086 18.771L33.0615 18.7349H33.3687L33.6938 18.7891L33.9106 18.8613L34.1636 18.9878L34.4165 19.1685L34.6514 19.4033L34.814 19.6382L34.9585 19.9272L35.0308 20.1621L35.0669 20.415V28.1113L35.0308 28.6895L34.9404 29.3398L34.832 29.8638L34.7236 30.2793L34.5791 30.749L34.3623 31.3091L34.1455 31.7969L33.9648 32.1401L33.8384 32.3569L33.73 32.5557L33.3687 33.0977L33.1519 33.3867L32.9531 33.6396L32.7725 33.8384L32.646 33.9829L32.4834 34.1636L32.1763 34.4707L32.0317 34.5972L31.833 34.7778L31.6343 34.9404L31.3271 35.1753L31.02 35.3921L30.7129 35.5908L30.2793 35.8438L29.7554 36.1147L29.2495 36.3315L28.8159 36.4941L28.2739 36.6567L27.8403 36.7651L27.2622 36.8735L26.5576 36.9639L26.2324 37H8.59961L8.52734 36.9639L7.80469 36.8735L7.1543 36.7471L6.7207 36.6387L6.19678 36.4761L5.67285 36.2773L5.20312 36.0605L4.80566 35.8618L4.31787 35.5728L3.99268 35.356L3.66748 35.1211L3.41455 34.9224L3.16162 34.7056L3.01709 34.5791L2.85449 34.4165L2.70996 34.29L2.56543 34.1455V34.1094H2.5293L2.40283 33.9648L2.18604 33.73L1.9873 33.4771L1.82471 33.2783L1.60791 32.9712L1.46338 32.7544L1.22852 32.375L1.01172 31.9775L0.812988 31.5801L0.596191 31.0562L0.415527 30.5503L0.25293 29.9722L0.126465 29.376L0.0180664 28.6714L0 28.5991V10.2617L0.0541992 9.97266L0.162598 9.32227L0.289062 8.76221L0.433594 8.27441L0.596191 7.82275L0.776855 7.38916L1.06592 6.79297L1.35498 6.28711L1.53564 6.01611L1.77051 5.67285L2.00537 5.38379L2.13184 5.22119L2.34863 4.96826L2.61963 4.6792L2.96289 4.33594L3.10742 4.20947L3.28809 4.04688L3.83008 3.63135L4.11914 3.43262L4.5166 3.17969L5.00439 2.90869L5.52832 2.65576L6.12451 2.4209L6.63037 2.2583L7.28076 2.0957L7.76855 2.00537L8.32861 1.93311L8.96094 1.89697Z" fill="#757575"/>
<path d="M28.9243 0H29.9722V0.0180664L30.6948 0.126465L31.2368 0.25293L31.5981 0.361328L31.9595 0.487793L32.4292 0.686523L32.8989 0.921387L33.2964 1.15625L33.6216 1.37305L33.9648 1.62598L34.2539 1.86084L34.4346 2.02344L34.5791 2.1499L35.0127 2.5835L35.1392 2.72803L35.3379 2.96289L35.6089 3.32422L35.9341 3.81201L36.1509 4.19141L36.4038 4.69727L36.6025 5.20312L36.729 5.58252L36.8735 6.16064L36.9639 6.64844H37V8.32861L36.9639 8.34668L36.8916 8.78027L36.7651 9.32227L36.5483 9.97266L36.3135 10.4966L36.1689 10.7856L36.0244 11.0386L35.8076 11.3818L35.5728 11.7251L35.2114 12.1768L35.0488 12.3574L34.9224 12.502L33.6938 13.7305L33.6758 13.7666H33.6396V13.8027H33.6035V13.8389H33.5674V13.875H33.5312V13.9111H33.4951V13.9473H33.459L33.4229 14.0195H33.3867L33.3506 14.0918H33.3145L33.2783 14.1641L20.3428 27.0996L20.0718 27.2983L19.8188 27.4248L19.5298 27.5151L18.9878 27.6055L17.8677 27.7681L10.3159 28.8521H9.90039L9.55713 28.7979L9.25 28.7075L8.94287 28.563L8.68994 28.3823L8.47314 28.1655L8.29248 27.8945L8.16602 27.5874L8.11182 27.3706L8.09375 27.2441V26.7925L8.47314 24.1367L8.76221 22.1313L9.12354 19.6201L9.4126 17.6147L9.48486 17.3076L9.61133 17.0005L9.73779 16.8018L9.93652 16.5669L23.4863 3.01709H23.5225V2.98096H23.5586V2.94482H23.5947V2.90869H23.6309V2.87256L23.7031 2.80029H23.7393V2.76416H23.7754V2.72803L23.9199 2.60156L24.5884 1.93311L24.7329 1.80664L25.022 1.57178L25.311 1.35498L25.6904 1.10205L26.0518 0.885254L26.5396 0.632324L26.9731 0.45166L27.5693 0.25293L28.1113 0.126465L28.6533 0.0361328L28.9243 0ZM29.376 3.79395L28.9424 3.83008L28.5088 3.92041L28.0933 4.06494L27.8042 4.20947L27.5513 4.354L27.3706 4.48047L27.3887 4.53467L27.5332 4.66113L27.8403 4.96826L27.8584 5.00439H27.8945V5.04053H27.9307V5.07666L28.0752 5.20312L32.4653 9.59326L32.5195 9.5752L32.646 9.37646L32.8447 9.0332L33.0073 8.65381L33.0977 8.34668L33.1699 8.00342L33.2061 7.60596V7.29883L33.1699 6.91943L33.0796 6.46777L32.9351 6.03418L32.7725 5.69092L32.5376 5.31152L32.3027 5.02246L31.9414 4.66113L31.7065 4.48047L31.3633 4.26367L31.0742 4.11914L30.8213 4.01074L30.46 3.90234L30.0986 3.83008L29.9722 3.81201L29.665 3.79395H29.376ZM24.6606 7.1001L24.5703 7.19043L24.4258 7.35303L24.2993 7.46143L24.1729 7.60596L22.8901 8.88867L22.7817 8.979L22.6914 9.0874L22.5649 9.1958L22.4746 9.3042L22.3481 9.4126L22.2397 9.53906L22.1313 9.62939L22.041 9.71973V9.75586L21.9868 9.77393L21.8965 9.88232L21.752 10.0088V10.0449L21.6797 10.0811V10.1172L21.6074 10.1533V10.1895L21.5352 10.2256V10.2617L21.4629 10.2979V10.334L21.3906 10.3701V10.4062L21.3184 10.4424V10.4785L21.2461 10.5146V10.5508L21.1738 10.5869V10.623L21.1016 10.6592V10.6953L21.0293 10.7314V10.7676L20.957 10.8037V10.8398L20.8848 10.876V10.9121L20.8125 10.9482V10.9844L20.7402 11.0205V11.0566L20.668 11.0928V11.1289L20.5957 11.165V11.2012L20.5234 11.2373V11.2734L20.4512 11.3096V11.3457L20.3789 11.3818V11.418L20.3066 11.4541V11.4902L20.2344 11.5264V11.5625L20.1621 11.5986V11.6348L20.0898 11.6709V11.707L20.0176 11.7432V11.7793L19.9453 11.8154L13.1343 18.6265L13.0259 18.7168L12.9717 18.9336L12.8452 19.7827L12.52 22.0591L12.2671 23.8477L12.1406 24.7329V24.8413L16.7295 24.1909L18.0122 24.0103L18.229 23.9561L24.0645 18.1206V18.0845H24.1006V18.0483H24.1367V18.0122H24.1729V17.9761H24.209V17.9399H24.2451V17.9038H24.2812V17.8677H24.3174V17.8315H24.3535V17.7954H24.3896V17.7593H24.4258V17.7231H24.4619V17.687H24.498V17.6509H24.5342V17.6147H24.5703V17.5786H24.6064V17.5425H24.6426V17.5063H24.6787V17.4702H24.7148V17.4341H24.751V17.3979H24.7871V17.3618H24.8232V17.3257H24.8594V17.2896H24.8955V17.2534H24.9316V17.2173H24.9678V17.1812H25.0039V17.145H25.04V17.1089H25.0762L25.1846 16.9824L25.293 16.8921L25.4014 16.7656L25.5098 16.6753L25.6182 16.5488L25.7266 16.4585L25.835 16.332L25.9434 16.2417L26.0518 16.1152L26.1602 16.0249L26.2686 15.8984L26.377 15.8081L26.4854 15.6816L26.5938 15.5913L26.7021 15.4648L26.8105 15.3745L26.9189 15.248L27.0273 15.1577L27.1538 15.0132L29.8638 12.3032L29.8276 12.2129L24.7329 7.11816L24.6606 7.1001Z" fill="#757575"/>
</svg>
