<svg width="52" height="47" viewBox="0 0 52 47" fill="none" xmlns="http://www.w3.org/2000/svg">
<path fill-rule="evenodd" clip-rule="evenodd" d="M22.4733 1.84092C23.3567 1.08325 24.4821 0.666748 25.646 0.666748C26.8099 0.666748 27.9353 1.08325 28.8187 1.84092L44.2584 15.0729L50.3188 19.9221C50.5687 20.1221 50.7768 20.3694 50.9312 20.6498C51.0856 20.9303 51.1832 21.2383 51.2185 21.5565C51.2538 21.8746 51.2261 22.1966 51.1369 22.5041C51.0478 22.8115 50.899 23.0984 50.699 23.3483C50.499 23.5982 50.2517 23.8063 49.9713 23.9607C49.6908 24.115 49.3828 24.2127 49.0646 24.248C48.7465 24.2833 48.4245 24.2555 48.117 24.1664C47.8096 24.0773 47.5227 23.9284 47.2728 23.7284L45.1406 22.0227V41.3199C45.1406 42.6124 44.6271 43.8521 43.7131 44.766C42.7991 45.68 41.5595 46.1935 40.2669 46.1935H30.5196V34.0094C30.5196 32.7168 30.0062 31.4772 29.0922 30.5632C28.1782 29.6492 26.9386 29.1357 25.646 29.1357C24.3534 29.1357 23.1138 29.6492 22.1998 30.5632C21.2858 31.4772 20.7724 32.7168 20.7724 34.0094V46.1935H11.0251C9.7325 46.1935 8.49287 45.68 7.57889 44.766C6.6649 43.8521 6.15143 42.6124 6.15143 41.3199V22.0202L4.01921 23.726C3.77098 23.938 3.4827 24.0979 3.17148 24.1963C2.86025 24.2947 2.53243 24.3296 2.20746 24.2989C1.8825 24.2681 1.56702 24.1724 1.27975 24.0175C0.992484 23.8625 0.739281 23.6513 0.535173 23.3966C0.331066 23.1419 0.180215 22.8488 0.0915734 22.5346C0.00293218 22.2205 -0.0216919 21.8917 0.0191625 21.5679C0.0600169 21.244 0.165517 20.9317 0.329401 20.6494C0.493285 20.3671 0.712212 20.1206 0.973187 19.9246L7.03356 15.0753L22.4733 1.84092Z" fill="#454545"/>
</svg>
