<svg width="64" height="57" viewBox="0 0 64 57" fill="none" xmlns="http://www.w3.org/2000/svg">
<path d="M28.3987 1.84638L28.3988 1.8463C29.4118 0.977557 30.7022 0.5 32.0366 0.5C33.3711 0.5 34.6615 0.977557 35.6745 1.8463L35.6746 1.84641L54.9617 18.3756L54.9681 18.3811L54.9747 18.3863L62.5452 24.444C62.8061 24.6528 63.0234 24.9109 63.1845 25.2037C63.3457 25.4965 63.4476 25.8182 63.4845 26.1503C63.5213 26.4825 63.4924 26.8187 63.3993 27.1396C63.3063 27.4606 63.1509 27.7601 62.9421 28.0211C62.7333 28.282 62.4751 28.4993 62.1823 28.6604C61.8895 28.8216 61.5679 28.9235 61.2357 28.9604C60.9035 28.9972 60.5674 28.9683 60.2464 28.8752C59.9254 28.7822 59.6259 28.6268 59.3649 28.418L59.3649 28.4179L56.7013 26.2871L55.889 25.6372V26.6775V50.7833C55.889 52.2654 55.3003 53.6867 54.2523 54.7347C53.2043 55.7827 51.783 56.3714 50.3009 56.3714H38.6247V41.6512C38.6247 39.9039 37.9306 38.2282 36.6951 36.9927C35.4596 35.7572 33.7839 35.0631 32.0366 35.0631C30.2894 35.0631 28.6137 35.7572 27.3782 36.9927C26.1427 38.2282 25.4485 39.9039 25.4485 41.6512V56.3714H13.7724C12.2903 56.3714 10.869 55.7827 9.821 54.7347C8.77303 53.6867 8.18429 52.2654 8.18429 50.7833V26.6745V25.6342L7.37194 26.2841L4.7084 28.4149L4.70215 28.4199L4.69606 28.4251C4.43691 28.6464 4.13595 28.8133 3.81103 28.9161C3.4861 29.0188 3.14386 29.0552 2.8046 29.0232C2.46533 28.9911 2.13597 28.8912 1.83606 28.7294C1.53615 28.5676 1.27181 28.3471 1.05872 28.0812C0.845633 27.8153 0.688144 27.5092 0.595603 27.1813C0.503061 26.8533 0.477354 26.5101 0.520006 26.172C0.562658 25.8339 0.6728 25.5078 0.843895 25.2131C1.01499 24.9184 1.24355 24.6611 1.51601 24.4564L1.52211 24.4518L1.52808 24.447L9.09861 18.3894L9.10521 18.3841L9.11163 18.3786L28.3987 1.84638Z" fill="white" stroke="black"/>
</svg>
