<?xml version="1.0" encoding="utf-8"?>
<!-- Generator: Adobe Illustrator 27.5.0, SVG Export Plug-In . SVG Version: 6.00 Build 0)  -->
<svg version="1.1" xmlns="http://www.w3.org/2000/svg" xmlns:xlink="http://www.w3.org/1999/xlink" x="0px" y="0px"
	 viewBox="0 0 2200 2200" style="enable-background:new 0 0 2200 2200;" xml:space="preserve">
<g id="background">
	<rect style="fill:#FFFFFF;" width="2200" height="2200"/>
</g>
<g id="Objects">
	<g>
		<path style="fill:#23343D;" d="M1658.829,1784.441c-16.786,54.499-48.682,97.678-85.456,128.784
			c-80.784,68.337-187.937,80.164-281.4,31.075c-64.047-33.639-125.19-94.923-191.973-92.835
			c-66.783-2.088-127.925,59.196-191.973,92.835c-93.463,49.088-200.617,37.261-281.4-31.075
			c-36.773-31.106-68.67-74.285-85.456-128.784c-16.786-54.499-16.977-121.048,5.329-175.378
			c19.528-47.569,53.792-81.545,89.145-107.394c35.36-25.841,73.476-44.683,107.259-73.963
			c127.939-110.894,163.009-316.273,357.095-316.273s229.156,205.379,357.096,316.273c33.784,29.28,71.9,48.121,107.259,73.963
			c35.353,25.849,69.617,59.826,89.145,107.394C1675.805,1663.393,1675.615,1729.942,1658.829,1784.441z"/>
	</g>
	<path style="fill:#23343D;" d="M1041.145,788.6c1.949,114.079-66.029,213.729-171.112,223.511
		c-105.083,9.782-201.617-104.181-214.29-240.313c-13.39-143.838,93.146-356.881,198.761-355.305
		C974.435,418.282,1038.7,645.471,1041.145,788.6z"/>
	<g>
		<path style="fill:#23343D;" d="M874.495,319.423c0.757,10.108,0.994,20.576-2.608,30.048
			c-3.611,9.473-11.892,17.803-21.993,18.632c-10.412,0.841-20.171-6.531-24.975-15.813s-5.53-20.089-5.374-30.546
			c0.494-32.197,8.841-64.173,23.764-92.685c2.461-4.705,9.35-4.338,11.229,0.628C865.422,258.439,872.185,288.759,874.495,319.423z
			"/>
	</g>
	<path style="fill:#23343D;" d="M656.819,1083.733c19.246,99.589-24.955,197.295-115.463,222.016s-192.556-60.223-224.582-177.473
		c-33.839-123.887,26.689-326.81,119.409-341.668C541.471,769.736,632.672,958.784,656.819,1083.733z"/>
	<g>
		<path style="fill:#23343D;" d="M438.762,698.539c2.217,8.734,4.034,17.863,2.336,26.711c-1.705,8.85-7.675,17.417-16.393,19.695
			c-8.987,2.337-18.666-2.617-24.3-10.006c-5.634-7.389-7.931-16.74-9.402-25.92c-4.518-28.268-2.126-57.55,6.557-84.809
			c1.431-4.499,7.52-5.236,9.929-1.176C421.442,646.536,432.025,672.046,438.762,698.539z"/>
	</g>
	<path style="fill:#23343D;" d="M1158.855,788.6c-1.949,114.079,66.029,213.729,171.113,223.511
		c105.083,9.782,201.617-104.181,214.29-240.313c13.39-143.838-93.146-356.881-198.761-355.305
		C1225.565,418.282,1161.3,645.471,1158.855,788.6z"/>
	<g>
		<path style="fill:#23343D;" d="M1325.505,319.423c-0.757,10.108-0.994,20.576,2.608,30.048
			c3.611,9.473,11.892,17.803,21.993,18.632c10.412,0.841,20.171-6.531,24.975-15.813s5.53-20.089,5.374-30.546
			c-0.494-32.197-8.841-64.173-23.764-92.685c-2.461-4.705-9.35-4.338-11.229,0.628
			C1334.578,258.439,1327.815,288.759,1325.505,319.423z"/>
	</g>
	<path style="fill:#23343D;" d="M1543.181,1083.733c-19.246,99.589,24.955,197.295,115.463,222.016
		c90.508,24.722,192.556-60.223,224.582-177.473c33.839-123.887-26.689-326.81-119.409-341.668
		C1658.529,769.736,1567.328,958.784,1543.181,1083.733z"/>
	<g>
		<path style="fill:#23343D;" d="M1761.238,698.539c-2.217,8.734-4.034,17.863-2.336,26.711c1.705,8.85,7.675,17.417,16.392,19.695
			c8.988,2.337,18.666-2.617,24.3-10.006c5.634-7.389,7.931-16.74,9.402-25.92c4.518-28.268,2.126-57.55-6.557-84.809
			c-1.431-4.499-7.52-5.236-9.929-1.176C1778.558,646.536,1767.975,672.046,1761.238,698.539z"/>
	</g>
</g>
</svg>
