<svg width="58" height="58" viewBox="0 0 58 58" fill="none" xmlns="http://www.w3.org/2000/svg">
<path d="M29 0C12.9798 0 0 12.9798 0 29C0 45.0202 12.9798 58 29 58C45.0202 58 58 45.0202 58 29C58 12.9798 45.0202 0 29 0ZM29 11.2258C34.6831 11.2258 39.2903 15.8331 39.2903 21.5161C39.2903 27.1992 34.6831 31.8065 29 31.8065C23.3169 31.8065 18.7097 27.1992 18.7097 21.5161C18.7097 15.8331 23.3169 11.2258 29 11.2258ZM29 51.4516C22.1359 51.4516 15.9851 48.3411 11.869 43.4766C14.0673 39.3371 18.3706 36.4839 23.3871 36.4839C23.6677 36.4839 23.9484 36.5306 24.2173 36.6125C25.7375 37.1036 27.3278 37.4194 29 37.4194C30.6722 37.4194 32.2742 37.1036 33.7827 36.6125C34.0516 36.5306 34.3323 36.4839 34.6129 36.4839C39.6294 36.4839 43.9327 39.3371 46.1311 43.4766C42.0149 48.3411 35.8641 51.4516 29 51.4516Z" fill="white"/>
</svg>
