<svg width="49" height="49" viewBox="0 0 49 49" fill="none" xmlns="http://www.w3.org/2000/svg">
<path d="M24.5 0C10.9657 0 0 10.9657 0 24.5C0 38.0343 10.9657 49 24.5 49C38.0343 49 49 38.0343 49 24.5C49 10.9657 38.0343 0 24.5 0ZM24.5 9.48387C29.3012 9.48387 33.1936 13.3762 33.1936 18.1774C33.1936 22.9786 29.3012 26.871 24.5 26.871C19.6988 26.871 15.8065 22.9786 15.8065 18.1774C15.8065 13.3762 19.6988 9.48387 24.5 9.48387ZM24.5 43.4677C18.701 43.4677 13.5046 40.8399 10.0272 36.7302C11.8845 33.2331 15.52 30.8226 19.7581 30.8226C19.9952 30.8226 20.2323 30.8621 20.4595 30.9313C21.7438 31.3462 23.0873 31.6129 24.5 31.6129C25.9127 31.6129 27.2661 31.3462 28.5405 30.9313C28.7677 30.8621 29.0048 30.8226 29.2419 30.8226C33.48 30.8226 37.1155 33.2331 38.9728 36.7302C35.4954 40.8399 30.299 43.4677 24.5 43.4677Z" fill="#454545"/>
</svg>
