<svg width="50" height="50" viewBox="0 0 50 50" fill="none" xmlns="http://www.w3.org/2000/svg">
    <path
        d="M49.3535 10.478C48.4114 9.53593 40.4551 1.57955 39.5214 0.645859C37.5533 -1.3227 34.5718 1.65446 36.5422 3.62497L37.737 4.8197L31.9918 10.5646L27.0102 5.58308C25.0421 3.61452 22.0607 6.59168 24.0311 8.56219L26.3283 10.8595L23.5467 13.6411L28.3133 18.4077C30.2814 20.3758 27.3049 23.3579 25.3342 21.3868L20.5676 16.6202L18.8794 18.3084L23.646 23.075C25.614 25.043 22.6376 28.0252 20.6669 26.0541L15.9003 21.2875L14.2122 22.9757L18.9788 27.7423C20.9468 29.7103 17.9704 32.6926 15.9997 30.7214L11.2331 25.9548L6.96187 30.226C6.13922 31.0487 6.13922 32.3825 6.96187 33.2052L10.3884 36.6317L0.645643 46.3744C-1.32233 48.3424 1.65404 51.3246 3.62475 49.3535L13.3673 39.611L16.7938 43.0376C17.6164 43.8603 18.9503 43.8603 19.773 43.0376L39.1397 23.6709L41.437 25.9682C43.389 27.9205 46.4116 24.9846 44.4161 22.9891C43.7914 22.3646 40.7536 19.3266 39.4344 18.0074L45.1796 12.2623L46.3743 13.457C48.3422 15.4253 51.3244 12.449 49.3535 10.478ZM36.4554 15.0283C35.9182 14.4911 35.5082 14.0811 34.971 13.5439L40.7159 7.79891L42.2004 9.28339L36.4554 15.0283Z"
        fill="white" />
</svg>