<svg width="51" height="51" viewBox="0 0 51 51" fill="none" xmlns="http://www.w3.org/2000/svg">
<path d="M50.3406 10.6876C49.3797 9.72665 41.2642 1.61114 40.3118 0.658776C38.3044 -1.34916 35.2633 1.68755 37.2731 3.69747L38.4917 4.9161L32.6317 10.7759L27.5504 5.69474C25.543 3.68681 22.5019 6.72351 24.5117 8.73344L26.8549 11.0767L24.0176 13.9139L28.8796 18.7759C30.887 20.7833 27.851 23.8251 25.8409 21.8146L20.9789 16.9526L19.257 18.6746L24.1189 23.5365C26.1263 25.5439 23.0904 28.5858 21.0802 26.5752L16.2183 21.7133L14.4964 23.4352L19.3584 28.2972C21.3657 30.3045 18.3298 33.3464 16.3197 31.3359L11.4577 26.4739L7.10111 30.8306C6.262 31.6697 6.262 33.0301 7.10111 33.8693L10.5962 37.3644L0.658556 47.3019C-1.34878 49.3093 1.68713 52.3511 3.69725 50.3406L13.6346 40.4033L17.1297 43.8984C17.9687 44.7375 19.3293 44.7375 20.1684 43.8984L39.9225 24.1444L42.2657 26.4876C44.2567 28.4789 47.3398 25.4843 45.3044 23.4489C44.6672 22.8119 41.5687 19.7131 40.2231 18.3676L46.0832 12.5076L47.3018 13.7262C49.309 15.7338 52.3509 12.698 50.3406 10.6876ZM37.1845 15.3289C36.6366 14.7809 36.2183 14.3627 35.6704 13.8147L41.5302 7.95489L43.0444 9.46906L37.1845 15.3289Z" fill="#454545"/>
</svg>
