<svg width="1188" height="1229" viewBox="0 0 1188 1229" fill="none" xmlns="http://www.w3.org/2000/svg">
<path d="M984.109 440.141C965.324 421.337 806.674 262.528 788.056 243.891C748.813 204.599 689.362 264.023 728.652 303.354L752.475 327.201L637.917 441.87L538.583 342.438C499.34 303.146 439.889 362.57 479.18 401.901L524.987 447.755L469.521 503.277L564.567 598.418C603.811 637.701 544.46 697.224 505.164 657.881L410.118 562.74L376.455 596.436L471.501 691.577C510.743 730.858 451.394 790.384 412.098 751.04L317.052 655.899L283.391 689.595L378.437 784.737C417.679 824.017 358.33 883.543 319.034 844.2L223.988 749.058L138.82 834.311C122.416 850.732 122.416 877.354 138.82 893.774L207.146 962.169L12.8741 1156.63C-26.3673 1195.91 32.9816 1255.44 72.2776 1216.1L266.543 1021.64L334.869 1090.03C351.271 1106.45 377.869 1106.45 394.273 1090.03L780.446 703.472L826.254 749.325C865.176 788.292 925.448 729.693 885.657 689.862C873.2 677.397 812.627 616.758 786.323 590.428L900.881 475.755L924.704 499.602C963.943 538.889 1023.41 479.482 984.109 440.141ZM726.921 530.965C716.209 520.243 708.033 512.058 697.321 501.335L811.875 386.666L841.475 416.296L726.921 530.965Z" fill="#757575"/>
<path d="M843.333 344.667H1031.33V407.333H843.333V595.333H780.667V407.333H592.667V344.667H780.667V156.667H843.333V344.667Z" fill="#7EE43A"/>
</svg>
